<?xml version="1.0" encoding="UTF-8" standalone="no"?>
<!-- Created with Inkscape (http://www.inkscape.org/) -->

<svg
   xmlns:dc="http://purl.org/dc/elements/1.1/"
   xmlns:cc="http://creativecommons.org/ns#"
   xmlns:rdf="http://www.w3.org/1999/02/22-rdf-syntax-ns#"
   xmlns:svg="http://www.w3.org/2000/svg"
   xmlns="http://www.w3.org/2000/svg"
   xmlns:sodipodi="http://sodipodi.sourceforge.net/DTD/sodipodi-0.dtd"
   xmlns:inkscape="http://www.inkscape.org/namespaces/inkscape"
   width="135.46666mm"
   height="135.46666mm"
   viewBox="0 0 135.46666 135.46666"
   version="1.1"
   id="svg3790"
   inkscape:version="0.92.4 (5da689c313, 2019-01-14)"
   sodipodi:docname="add.svg">
  <defs
     id="defs3784" />
  <sodipodi:namedview
     id="base"
     pagecolor="#ffffff"
     bordercolor="#666666"
     borderopacity="1.0"
     inkscape:pageopacity="0.0"
     inkscape:pageshadow="2"
     inkscape:zoom="0.35"
     inkscape:cx="-174.00002"
     inkscape:cy="144.57141"
     inkscape:document-units="mm"
     inkscape:current-layer="layer1"
     showgrid="false"
     inkscape:window-width="2048"
     inkscape:window-height="1089"
     inkscape:window-x="-8"
     inkscape:window-y="-8"
     inkscape:window-maximized="1" />
  <metadata
     id="metadata3787">
    <rdf:RDF>
      <cc:Work
         rdf:about="">
        <dc:format>image/svg+xml</dc:format>
        <dc:type
           rdf:resource="http://purl.org/dc/dcmitype/StillImage" />
        <dc:title></dc:title>
      </cc:Work>
    </rdf:RDF>
  </metadata>
  <g
     inkscape:label="Layer 1"
     inkscape:groupmode="layer"
     id="layer1"
     transform="translate(-19.201195,-51.617859)">
    <path
       style="fill:#000000;stroke-width:0.26458332"
       d="m 81.245984,184.14523 c -14.216988,-1.3251 -27.383125,-7.10243 -37.721089,-16.55211 -6.303121,-5.76153 -10.937124,-11.95867 -14.755421,-19.73269 -4.574582,-9.31381 -6.51107,-17.83222 -6.51107,-28.64153 0,-7.91128 0.824299,-13.3553 3.064707,-20.240627 1.517249,-4.662879 4.690833,-11.379715 7.136466,-15.104209 7.384897,-11.246578 17.346151,-19.619353 29.471824,-24.772078 1.74625,-0.742058 3.472656,-1.429757 3.836458,-1.528221 0.363802,-0.09846 1.971146,-0.586514 3.571875,-1.084555 3.647829,-1.134962 8.028551,-1.869992 13.559895,-2.275178 7.207091,-0.527939 16.076411,0.382725 22.158851,2.275178 1.60073,0.498041 3.20808,0.986091 3.57188,1.084555 0.3638,0.09846 2.09021,0.786163 3.83646,1.528221 12.12567,5.152725 22.08692,13.5255 29.47182,24.772078 2.44563,3.724494 5.61922,10.44133 7.13647,15.104209 2.2404,6.885327 3.0647,12.329347 3.0647,20.240627 0,10.80931 -1.93649,19.32772 -6.51107,28.64153 -3.8183,7.77402 -8.4523,13.97116 -14.75542,19.73269 -6.51448,5.95472 -15.50891,11.2045 -23.18035,13.52967 -1.30345,0.39506 -3.02475,0.93497 -3.82511,1.19978 -1.80848,0.59836 -7.085549,1.47089 -11.112502,1.83739 -3.46765,0.31559 -8.027929,0.30975 -11.509374,-0.0147 z m 12.671638,-29.21186 c 0.464947,-0.22063 1.078254,-0.78618 1.362903,-1.25677 0.4893,-0.80893 0.524759,-1.54864 0.649833,-13.55562 l 0.132292,-12.7 12.76192,-0.13229 12.76193,-0.13229 0.99641,-0.99602 0.9964,-0.99602 0.0734,-5.48628 c 0.068,-5.07946 0.0346,-5.54896 -0.45039,-6.33179 -1.15089,-1.85774 -0.60962,-1.78589 -14.56002,-1.9326 L 96.06265,111.2814 95.930358,98.581398 c -0.09293,-8.921749 -0.223457,-12.857426 -0.438727,-13.229166 -0.168539,-0.291041 -0.624329,-0.826823 -1.01287,-1.190625 -0.698836,-0.654343 -0.764257,-0.662328 -6.081471,-0.742487 -2.956269,-0.04457 -5.774695,0.01921 -6.263169,0.141743 -0.693767,0.174014 -1.016037,0.481272 -1.472544,1.403943 -0.576601,1.165402 -0.584552,1.34307 -0.595312,13.303257 -0.007,7.829047 -0.107905,12.303327 -0.284798,12.633857 -0.264829,0.49483 -0.685662,0.51177 -12.717655,0.51177 H 54.620054 l -0.885127,0.67512 c -1.477348,1.12683 -1.7254,2.1709 -1.7254,7.26238 0,5.19454 0.242361,6.1605 1.819986,7.2538 l 0.986581,0.6837 h 12.345741 c 11.935081,0 12.354851,0.017 12.619632,0.51177 0.177067,0.33086 0.275299,4.75035 0.277876,12.50156 0.0046,13.86805 0.01863,13.97445 1.933234,14.68164 1.344165,0.49649 10.857343,0.45637 11.925045,-0.0503 z"
       id="path3803"
       inkscape:connector-curvature="0" />
    <path
       style="fill:#00ff00;stroke-width:2.85714293"
       d="M 229.99998,498.87368 C 128.0361,486.22396 47.153018,415.91074 19.635796,315.99999 c -7.20464,-26.15892 -7.194213,-93.90609 0.01847,-120 C 32.70077,148.8006 54.817507,111.29146 88.424744,79.367868 120.45497,48.942285 155.16712,29.111095 195.32597,18.294775 c 29.28959,-7.888814 89.90882,-8.5857215 118.79464,-1.365721 53.09446,13.270937 103.40269,46.572902 137.86643,91.261886 15.71974,20.38374 36.32386,63.2947 42.20854,87.90525 28.76503,120.29937 -35.45622,244.19877 -149.314,288.06523 -34.63011,13.34209 -79.55312,19.09512 -114.8816,14.71226 z m 56.57143,-109.1594 c 2.05815,-2.05814 3.43448,-12.0508 3.44336,-25 0.008,-11.86429 0.8449,-34.10714 1.85949,-49.42857 l 1.84472,-27.85715 h 45.77266 c 56.59026,0 56.24209,0.19309 56.17889,-31.1571 -0.0229,-11.93502 -1.26057,-23.62861 -2.7478,-25.98575 -2.1906,-3.47195 -11.868,-4.45609 -50.96592,-5.18297 l -48.26188,-0.89725 -1.83269,-27.67418 c -1.00798,-15.22079 -1.83934,-37.38132 -1.84747,-49.2456 -0.009,-12.94921 -1.38521,-22.94185 -3.44336,-25 -4.6072,-4.6072 -48.53565,-4.6072 -53.14285,0 -2.15868,2.15867 -3.43492,13.00569 -3.4457,29.28571 -0.009,14.22143 -0.84284,36.46429 -1.85205,49.42857 l -1.83493,23.57143 h -46.17329 c -57.97216,0 -56.88952,-0.5981 -56.88952,31.42857 0,32.02641 -1.08208,31.42857 56.88516,31.42857 h 46.16894 l 1.85641,26.1532 c 1.02102,14.38429 1.8564,36.62715 1.8564,49.42858 0,14.29354 1.32307,24.59842 3.42858,26.70394 2.10229,2.10228 12.38095,3.42857 26.57142,3.42857 14.19048,0 24.46914,-1.32629 26.57143,-3.42857 z"
       id="path3805"
       inkscape:connector-curvature="0"
       transform="matrix(0.26458333,0,0,0.26458333,19.201195,51.617859)" />
  </g>
</svg>
