<?xml version="1.0" encoding="UTF-8" standalone="no"?>
<!-- Created with Inkscape (http://www.inkscape.org/) -->

<svg
   xmlns:dc="http://purl.org/dc/elements/1.1/"
   xmlns:cc="http://creativecommons.org/ns#"
   xmlns:rdf="http://www.w3.org/1999/02/22-rdf-syntax-ns#"
   xmlns:svg="http://www.w3.org/2000/svg"
   xmlns="http://www.w3.org/2000/svg"
   xmlns:sodipodi="http://sodipodi.sourceforge.net/DTD/sodipodi-0.dtd"
   xmlns:inkscape="http://www.inkscape.org/namespaces/inkscape"
   width="67.73333mm"
   height="67.73333mm"
   viewBox="0 0 67.73333 67.73333"
   version="1.1"
   id="svg3746"
   inkscape:version="0.92.4 (5da689c313, 2019-01-14)"
   sodipodi:docname="delete.svg">
  <defs
     id="defs3740" />
  <sodipodi:namedview
     id="base"
     pagecolor="#ffffff"
     bordercolor="#666666"
     borderopacity="1.0"
     inkscape:pageopacity="0.0"
     inkscape:pageshadow="2"
     inkscape:zoom="1.979899"
     inkscape:cx="148.26121"
     inkscape:cy="58.273964"
     inkscape:document-units="mm"
     inkscape:current-layer="layer1"
     showgrid="false"
     inkscape:window-width="2048"
     inkscape:window-height="1089"
     inkscape:window-x="-8"
     inkscape:window-y="-8"
     inkscape:window-maximized="1" />
  <metadata
     id="metadata3743">
    <rdf:RDF>
      <cc:Work
         rdf:about="">
        <dc:format>image/svg+xml</dc:format>
        <dc:type
           rdf:resource="http://purl.org/dc/dcmitype/StillImage" />
        <dc:title></dc:title>
      </cc:Work>
    </rdf:RDF>
  </metadata>
  <g
     inkscape:label="Layer 1"
     inkscape:groupmode="layer"
     id="layer1"
     transform="translate(-28.121429,-209.46071)">
    <path
       style="fill:#000000;stroke-width:0.26458332"
       d="m 58.283928,276.75805 c -8.376203,-1.25802 -14.378758,-4.20895 -19.914911,-9.79043 -6.493282,-6.54645 -9.771312,-14.37174 -9.79212,-23.37566 -0.02245,-9.71575 3.357788,-17.65199 10.429313,-24.48631 4.614783,-4.45998 9.067406,-6.90064 15.557579,-8.52773 2.482135,-0.62227 3.311061,-0.70128 7.424305,-0.70762 5.255281,-0.008 7.456926,0.34954 11.641666,1.89107 4.803759,1.76956 8.019576,3.84232 11.978481,7.72073 6.805998,6.66763 9.981935,14.25444 9.981935,23.84528 0,6.43869 -1.36158,11.67253 -4.374946,16.81704 -1.779778,3.03849 -3.126616,4.74687 -5.798264,7.35472 -6.24105,6.09202 -14.724512,9.49648 -23.409351,9.39429 -1.684226,-0.0198 -3.359885,-0.0807 -3.723687,-0.13538 z m -2.184882,-19.73638 6.153631,-6.14945 6.153632,6.14945 c 3.384494,3.3822 6.306385,6.14945 6.493089,6.14945 0.362582,0 6.667862,-6.18413 6.667862,-6.53974 0,-0.11625 -2.797987,-3.00744 -6.217751,-6.42488 l -6.21775,-6.21353 6.265132,-6.26922 6.265135,-6.26921 -1.768756,-1.97627 c -1.817997,-2.03129 -4.704299,-4.67173 -5.106744,-4.67173 -0.124624,0 -2.995723,2.76726 -6.380217,6.14945 l -6.153632,6.14945 -6.153631,-6.14945 c -3.384495,-3.38219 -6.273547,-6.14945 -6.420114,-6.14945 -0.146568,0 -1.751622,1.48871 -3.566788,3.30825 l -3.300301,3.30824 6.277516,6.2829 6.277516,6.2829 -6.272769,6.28766 -6.27277,6.28766 3.295555,3.30349 c 1.812555,1.81691 3.415473,3.30348 3.562041,3.30348 0.146567,0 3.035619,-2.76725 6.420114,-6.14945 z"
       id="path3759"
       inkscape:connector-curvature="0" />
    <path
       style="fill:#ff0000;stroke-width:0.50507629"
       d="m 118.4112,254.3068 c -3.61129,-0.22046 -8.49791,-0.78329 -10.85914,-1.25073 C 78.934178,247.39072 58.969442,237.00106 39.58725,217.68713 19.239974,197.41152 7.4083705,174.35862 3.1608538,146.71332 1.9114533,138.5815 1.9155038,118.14873 3.168213,109.59021 6.3111594,88.117588 14.540739,68.637993 27.493592,52.011518 39.695422,36.349065 56.020378,22.522094 71.521856,14.720301 83.143686,8.8711067 100.91742,3.4153045 112.02499,2.2875076 c 6.69441,-0.6797105 22.79323,-0.6827831 31.18787,-0.00595 8.44675,0.6810312 15.00879,2.0392019 23.40532,4.8442877 22.22561,7.4250577 35.63062,15.9475997 52.80963,33.5749037 14.41298,14.789096 23.14001,28.617261 28.85579,45.722578 4.44213,13.293749 6.24566,25.254223 6.24566,41.419293 0,16.3369 -1.61887,27.52687 -5.87206,40.58898 -3.97909,12.22031 -12.93241,28.60139 -21.25638,38.89087 -4.09398,5.06067 -16.58392,17.21467 -21.61142,21.03013 -18.12912,13.75852 -40.18371,22.846 -61.61931,25.38992 -6.52751,0.77467 -18.14408,1.02915 -25.75889,0.56428 z M 89.489813,196.00294 c 4.239504,-4.00342 14.857457,-14.44966 23.595447,-23.21388 l 15.88727,-15.93494 20.9833,20.82055 c 11.54082,11.4513 22.2898,21.92482 23.88662,23.27448 l 2.90332,2.45393 1.89491,-1.41565 c 3.63739,-2.71742 23.36458,-22.68175 23.3626,-23.64343 -10e-4,-0.5724 -9.23167,-10.21386 -23.34512,-24.38453 l -23.34317,-23.43778 23.68664,-23.69067 23.68664,-23.690666 -2.97094,-3.442585 c -7.57493,-8.777473 -21.60968,-21.877874 -23.43825,-21.877874 -0.34605,0 -11.13076,10.446937 -23.96602,23.215417 L 128.97622,104.25073 111.31934,86.549149 C 92.419997,67.60195 82.183748,57.819895 81.25616,57.819895 c -0.316425,0 -6.29126,5.674133 -13.277404,12.609184 l -12.702088,12.609189 23.73657,23.756302 23.736572,23.75631 -23.736572,23.76319 -23.73657,23.76319 12.735741,12.6023 c 7.00466,6.93127 12.968273,12.6023 13.252479,12.6023 0.284206,0 3.98542,-3.27551 8.224925,-7.27892 z"
       id="path3761"
       inkscape:connector-curvature="0"
       transform="matrix(0.26458333,0,0,0.26458333,28.121429,209.46071)" />
  </g>
</svg>
