<?xml version="1.0" encoding="UTF-8" standalone="no"?>
<!-- Created with Inkscape (http://www.inkscape.org/) -->

<svg
   xmlns:dc="http://purl.org/dc/elements/1.1/"
   xmlns:cc="http://creativecommons.org/ns#"
   xmlns:rdf="http://www.w3.org/1999/02/22-rdf-syntax-ns#"
   xmlns:svg="http://www.w3.org/2000/svg"
   xmlns="http://www.w3.org/2000/svg"
   xmlns:sodipodi="http://sodipodi.sourceforge.net/DTD/sodipodi-0.dtd"
   xmlns:inkscape="http://www.inkscape.org/namespaces/inkscape"
   width="135.46666mm"
   height="135.46666mm"
   viewBox="0 0 135.46666 135.46666"
   version="1.1"
   id="svg8"
   sodipodi:docname="edit.svg"
   inkscape:version="0.92.4 (5da689c313, 2019-01-14)">
  <defs
     id="defs2" />
  <sodipodi:namedview
     id="base"
     pagecolor="#ffffff"
     bordercolor="#666666"
     borderopacity="1.0"
     inkscape:pageopacity="0.0"
     inkscape:pageshadow="2"
     inkscape:zoom="0.7"
     inkscape:cx="-62.594324"
     inkscape:cy="233.94012"
     inkscape:document-units="mm"
     inkscape:current-layer="layer1"
     showgrid="false"
     inkscape:window-width="2048"
     inkscape:window-height="1089"
     inkscape:window-x="-8"
     inkscape:window-y="-8"
     inkscape:window-maximized="1" />
  <metadata
     id="metadata5">
    <rdf:RDF>
      <cc:Work
         rdf:about="">
        <dc:format>image/svg+xml</dc:format>
        <dc:type
           rdf:resource="http://purl.org/dc/dcmitype/StillImage" />
      </cc:Work>
    </rdf:RDF>
  </metadata>
  <g
     inkscape:label="Layer 1"
     inkscape:groupmode="layer"
     id="layer1"
     transform="translate(0.4535675,-0.96905297)">
    <path
       style="fill:#000000;stroke-width:0.26458332"
       d="m -0.35772352,135.99881 c 0.0814459,-0.26903 2.30145872,-9.12117 4.93336182,-19.67143 2.6319029,-10.55026 4.8984395,-19.610624 5.0367476,-20.134142 l 0.2514695,-0.951852 1.0051906,0.951852 c 1.277266,1.20949 3.28157,2.294893 5.109236,2.766838 l 1.427525,0.368617 -0.084,1.554027 c -0.400908,7.41733 4.567382,14.609 11.704916,16.94302 1.739074,0.56869 2.669561,0.70376 4.992827,0.72478 2.821906,0.0255 2.857116,0.0336 3.000325,0.68728 0.512365,2.33874 1.337416,4.12303 2.661483,5.75583 0.6404,0.78972 0.80853,1.16251 0.563409,1.24924 -0.192161,0.068 -9.219538,2.3343 -20.06084,5.03625 -10.8413011,2.70196 -19.93157012,4.97929 -20.20059743,5.06074 -0.38139313,0.11547 -0.45652086,0.0404 -0.34105709,-0.34105 z M 47.173896,120.33441 c -1.036767,-0.55603 -2.119132,-2.35797 -2.119132,-3.52797 0,-0.41835 0.183017,-1.2033 0.406704,-1.74433 0.288263,-0.69722 10.015637,-10.5959 33.402199,-33.990457 C 97.011189,62.91793 111.98091,48.064884 112.1297,48.064884 c 0.1488,0 1.54755,1.28098 3.10834,2.846625 l 2.8378,2.846623 -33.269393,33.241637 C 66.508283,105.28267 51.276991,120.37278 50.959136,120.53335 c -0.884399,0.44677 -2.765591,0.3479 -3.78524,-0.19894 z M 32.445715,109.98066 c -1.670479,-0.35212 -3.038668,-1.15274 -4.290208,-2.5105 -2.446391,-2.65402 -2.956671,-6.47946 -1.305565,-9.787511 0.349392,-0.700021 11.959081,-12.504324 33.771954,-34.338078 18.281742,-18.299244 33.361623,-33.271353 33.510848,-33.271353 0.350883,0 11.776186,11.428642 11.776186,11.779628 0,0.146211 -15.031643,15.277575 -33.403647,33.625249 -29.247927,29.209195 -33.57261,33.429575 -34.76179,33.923405 -1.604185,0.66616 -3.764558,0.90234 -5.297778,0.57916 z M 17.331243,90.487359 C 15.685168,89.67604 14.891883,87.836567 15.273841,85.716646 15.436803,84.812187 18.84052,81.322558 48.70827,51.438321 66.99742,33.139077 82.083006,18.166969 82.231797,18.166969 c 0.148791,0 1.54754,1.280981 3.108328,2.846624 l 2.837799,2.846625 -33.269392,33.241636 C 36.610367,75.384755 21.379077,90.474868 21.061221,90.635438 20.224756,91.057991 18.336939,90.983045 17.331243,90.487359 Z M 106.09953,29.866946 88.170317,11.936282 91.8141,8.3350693 c 5.815819,-5.7478699 8.65005,-7.1656141 14.35941,-7.1828916 2.70838,-0.0082 3.2911,0.077464 5.30335,0.7795841 1.24336,0.4338356 2.96976,1.2484391 3.83646,1.8102302 0.91788,0.594968 4.62473,4.0681106 8.87827,8.31852 7.94378,7.937936 8.8877,9.15462 10.07448,12.985623 0.49826,1.608384 0.61203,2.560894 0.6005,5.027083 -0.0125,2.683023 -0.10825,3.309943 -0.8096,5.303353 -1.09952,3.125076 -2.16012,4.586272 -6.37608,8.784362 l -3.65216,3.636674 z"
       id="path3724"
       inkscape:connector-curvature="0" />
    <path
       style="fill:#ffb380;stroke-width:1.42857146"
       d="M 403.25712,107.95956 336.11996,40.716414 350.40568,27.309717 c 17.89854,-16.797225 27.71501,-22.7715417 41.13566,-25.0352275 14.07979,-2.37486342 25.34653,-0.893753 37.65931,4.9506397 8.82432,4.1885548 13.82846,8.3870608 36.56299,30.6765358 39.69077,38.913773 44.44624,46.559988 44.56857,71.660845 0.0711,14.60181 -0.0929,15.40745 -5.23719,25.71429 -3.80266,7.61884 -9.21119,14.79814 -19.04699,25.28305 -7.55498,8.05357 -14.16776,14.64286 -14.69505,14.64286 -0.52728,0 -31.17042,-30.25942 -68.09586,-67.24315 z"
       id="path3728"
       inkscape:connector-curvature="0"
       transform="matrix(0.26458333,0,0,0.26458333,-0.4535675,0.96905297)" />
    <path
       style="fill:#ffcc00;stroke-width:1.42857146"
       d="m 181.11996,450.50466 c -5.17299,-2.60541 -9.27112,-10.87932 -7.97541,-16.10194 0.74708,-3.01126 36.48107,-39.68053 126.25271,-129.55716 68.8659,-68.94642 125.55092,-125.35628 125.9667,-125.35523 0.4158,0.001 5.57743,4.44468 11.47029,9.87473 l 10.71428,9.87282 -7.85714,8.10089 c -4.32143,4.4555 -61.62407,61.40473 -127.33921,126.55385 -128.16551,127.0616 -121.76941,121.37807 -131.23222,116.61204 z"
       id="path3730"
       inkscape:connector-curvature="0"
       transform="matrix(0.26458333,0,0,0.26458333,-0.4535675,0.96905297)" />
    <path
       style="fill:#ffcc00;stroke-width:1.42857146"
       d="m 122.16062,410.50458 c -15.48583,-4.97359 -24.351197,-20.67164 -20.86208,-36.94084 1.5143,-7.06093 3.39118,-9.119 70.63117,-77.45022 37.99155,-38.60808 95.39514,-96.0611 127.56355,-127.67337 l 58.48802,-57.47683 21.65703,21.65703 21.65704,21.65704 -62.5877,62.96266 C 233.19191,323.38795 149.1958,406.16452 144.67257,408.45794 c -6.18419,3.13555 -16.26724,4.05225 -22.51195,2.04664 z"
       id="path3732"
       inkscape:connector-curvature="0"
       transform="matrix(0.26458333,0,0,0.26458333,-0.4535675,0.96905297)" />
    <path
       style="fill:#ffcc00;stroke-width:1.42857146"
       d="m 68.817273,338.08832 c -4.807157,-1.94231 -9.125882,-8.49948 -9.125882,-13.85593 0,-4.48527 4.393362,-9.35964 55.514899,-61.59305 30.5332,-31.19729 87.4167,-88.12933 126.40777,-126.51564 l 70.89289,-69.793296 6.8065,5.731127 c 3.74358,3.152119 8.55957,7.578823 10.70218,9.837122 l 3.89568,4.105994 -126.7717,126.741893 C 71.342058,348.51216 78.519352,342.00841 68.817273,338.08832 Z"
       id="path3734"
       inkscape:connector-curvature="0"
       transform="matrix(0.26458333,0,0,0.26458333,-0.4535675,0.96905297)" />
    <path
       style="fill:#ff8080;stroke-width:1.42857146"
       d="m 403.97135,107.25897 -66.42282,-66.515176 12.14286,-11.60245 c 22.54438,-21.5410622 35.527,-27.5801583 57.00246,-26.5157077 10.22435,0.506779 13.95944,1.4097725 22.28326,5.3871835 8.78802,4.1992262 13.65406,8.4305752 40.14955,34.9126912 36.56312,36.544654 39.14805,40.638327 40.26147,63.760829 0.77309,16.05467 -0.79824,22.08087 -9.21668,35.34712 -4.47499,7.05192 -26.95184,31.74068 -28.89699,31.74068 -0.48417,0 -30.77057,-29.93183 -67.30311,-66.51517 z"
       id="path3736"
       inkscape:connector-curvature="0"
       transform="matrix(0.26458333,0,0,0.26458333,-0.4535675,0.96905297)" />
  </g>
</svg>
