<?xml version="1.0" encoding="UTF-8" standalone="no"?>
<!-- Created with Inkscape (http://www.inkscape.org/) -->

<svg
   xmlns:dc="http://purl.org/dc/elements/1.1/"
   xmlns:cc="http://creativecommons.org/ns#"
   xmlns:rdf="http://www.w3.org/1999/02/22-rdf-syntax-ns#"
   xmlns:svg="http://www.w3.org/2000/svg"
   xmlns="http://www.w3.org/2000/svg"
   xmlns:sodipodi="http://sodipodi.sourceforge.net/DTD/sodipodi-0.dtd"
   xmlns:inkscape="http://www.inkscape.org/namespaces/inkscape"
   width="512.49493mm"
   height="510.94617mm"
   viewBox="0 0 512.49494 510.94617"
   version="1.1"
   id="svg8"
   sodipodi:docname="edit.svg"
   inkscape:version="0.92.4 (5da689c313, 2019-01-14)">
  <defs
     id="defs2" />
  <sodipodi:namedview
     id="base"
     pagecolor="#ffffff"
     bordercolor="#666666"
     borderopacity="1.0"
     inkscape:pageopacity="0.0"
     inkscape:pageshadow="2"
     inkscape:zoom="0.35"
     inkscape:cx="535.45477"
     inkscape:cy="857.86075"
     inkscape:document-units="mm"
     inkscape:current-layer="layer1"
     showgrid="false"
     inkscape:window-width="2048"
     inkscape:window-height="1089"
     inkscape:window-x="-8"
     inkscape:window-y="-8"
     inkscape:window-maximized="1"
     inkscape:snap-nodes="false"
     inkscape:snap-others="false"
     inkscape:snap-global="false" />
  <metadata
     id="metadata5">
    <rdf:RDF>
      <cc:Work
         rdf:about="">
        <dc:format>image/svg+xml</dc:format>
        <dc:type
           rdf:resource="http://purl.org/dc/dcmitype/StillImage" />
      </cc:Work>
    </rdf:RDF>
  </metadata>
  <g
     inkscape:label="Layer 1"
     inkscape:groupmode="layer"
     id="layer1"
     transform="translate(0.40735107,-1.1516802)">
    <path
       style="fill:#000000;stroke-width:1.0010078"
       d="m -0.21933461,510.62177 c 0.30856186,-1.01643 8.71919131,-34.46098 18.69028761,-74.32124 9.971096,-39.86026 18.557983,-74.0915 19.08197,-76.06942 l 0.952705,-3.59622 3.808214,3.59622 c 4.838986,4.56961 12.432392,8.67041 19.356596,10.45348 l 5.40825,1.39268 -0.318238,5.87132 c -1.51886,28.02364 17.303755,55.19471 44.34466,64.01294 6.58857,2.14859 10.11376,2.6589 18.91557,2.73832 10.69093,0.0963 10.82433,0.12694 11.36688,2.59663 1.94112,8.83607 5.06687,15.57735 10.08317,21.74628 2.42618,2.98366 3.06315,4.39211 2.1345,4.71979 -0.72801,0.25691 -34.92868,8.81929 -76.001496,19.02761 -41.07281,10.20836 -75.5117485,18.81241 -76.5309719,19.12014 -1.44492697,0.43626 -1.72955212,0.15263 -1.29211186,-1.28853 z M 179.85658,451.43962 c -3.92784,-2.10076 -8.02844,-8.90872 -8.02844,-13.32914 0,-1.58058 0.69337,-4.54622 1.54082,-6.5903 1.0921,-2.63419 37.94474,-40.0327 126.5459,-128.42039 68.75279,-68.58714 125.46633,-124.70389 126.03003,-124.70389 0.56373,0 5.86297,4.83971 11.7761,10.75493 l 10.75115,10.75491 -126.04276,125.59125 c -69.32351,69.07519 -127.02802,126.08759 -128.23223,126.69425 -3.35059,1.68795 -10.47758,1.31441 -14.34057,-0.75162 z M 124.05813,412.3218 c -6.32869,-1.33036 -11.51214,-4.35521 -16.25367,-9.485 -9.268271,-10.02724 -11.201493,-24.48025 -4.94619,-36.9785 1.32368,-2.64477 45.30757,-47.24297 127.94673,-129.73374 69.26129,-69.13694 126.39217,-125.70352 126.95752,-125.70352 1.32934,0 44.61467,43.1789 44.61467,44.50497 0,0.55241 -56.94813,57.72068 -126.55139,127.04059 -110.80723,110.35615 -127.19151,126.3013 -131.69677,128.16705 -6.07754,2.51684 -14.26222,3.40916 -20.0709,2.18815 z M 66.796198,338.67356 c -6.236237,-3.06527 -9.241637,-10.01504 -7.79457,-18.02438 0.61739,-3.41716 13.512542,-16.60144 126.668002,-129.50799 69.28936,-69.13694 126.44186,-125.703516 127.00556,-125.703516 0.5637,0 5.86293,4.839714 11.77605,10.754918 L 335.20239,86.947513 209.15963,212.53876 c -69.32351,69.07519 -127.02801,126.0876 -128.232224,126.69426 -3.168989,1.59646 -10.321078,1.3133 -14.131208,-0.55946 z M 403.09929,109.64172 335.17357,41.897325 348.97822,28.291473 C 371.01174,6.5752693 381.74937,1.2188465 403.37956,1.1535698 c 10.26084,-0.030981 12.4685,0.2926691 20.09201,2.9453706 4.71053,1.6390876 11.25108,4.716766 14.53462,6.8392866 3.47743,2.247866 17.52102,15.369853 33.63577,31.428455 30.09541,29.990559 33.6715,34.587351 38.16767,49.06138 1.88768,6.076685 2.31871,9.675388 2.27502,18.992978 -0.0474,10.13681 -0.41011,12.5054 -3.06721,20.03676 -4.16558,11.80694 -8.18372,17.32753 -24.15609,33.18847 l -13.83639,13.73983 z"
       id="path3724"
       inkscape:connector-curvature="0" />
    <path
       style="fill:#ffb380;stroke-width:1.42857146"
       d="M 403.25712,107.95956 336.11996,40.716414 350.40568,27.309717 c 17.89854,-16.797225 27.71501,-22.7715417 41.13566,-25.0352275 14.07979,-2.37486342 25.34653,-0.893753 37.65931,4.9506397 8.82432,4.1885548 13.82846,8.3870608 36.56299,30.6765358 39.69077,38.913773 44.44624,46.559988 44.56857,71.660845 0.0711,14.60181 -0.0929,15.40745 -5.23719,25.71429 -3.80266,7.61884 -9.21119,14.79814 -19.04699,25.28305 -7.55498,8.05357 -14.16776,14.64286 -14.69505,14.64286 -0.52728,0 -31.17042,-30.25942 -68.09586,-67.24315 z"
       id="path3728"
       inkscape:connector-curvature="0" />
    <path
       style="fill:#ffcc00;stroke-width:1.42857146"
       d="m 181.11996,450.50466 c -5.17299,-2.60541 -9.27112,-10.87932 -7.97541,-16.10194 0.74708,-3.01126 36.48107,-39.68053 126.25271,-129.55716 68.8659,-68.94642 125.55092,-125.35628 125.9667,-125.35523 0.4158,0.001 5.57743,4.44468 11.47029,9.87473 l 10.71428,9.87282 -7.85714,8.10089 c -4.32143,4.4555 -61.62407,61.40473 -127.33921,126.55385 -128.16551,127.0616 -121.76941,121.37807 -131.23222,116.61204 z"
       id="path3730"
       inkscape:connector-curvature="0" />
    <path
       style="fill:#ffcc00;stroke-width:1.42857146"
       d="m 122.16062,410.50458 c -15.48583,-4.97359 -24.351197,-20.67164 -20.86208,-36.94084 1.5143,-7.06093 3.39118,-9.119 70.63117,-77.45022 37.99155,-38.60808 95.39514,-96.0611 127.56355,-127.67337 l 58.48802,-57.47683 21.65703,21.65703 21.65704,21.65704 -62.5877,62.96266 C 233.19191,323.38795 149.1958,406.16452 144.67257,408.45794 c -6.18419,3.13555 -16.26724,4.05225 -22.51195,2.04664 z"
       id="path3732"
       inkscape:connector-curvature="0" />
    <path
       style="fill:#ffcc00;stroke-width:1.42857146"
       d="m 68.817273,338.08832 c -4.807157,-1.94231 -9.125882,-8.49948 -9.125882,-13.85593 0,-4.48527 4.393362,-9.35964 55.514899,-61.59305 30.5332,-31.19729 87.4167,-88.12933 126.40777,-126.51564 l 70.89289,-69.793296 6.8065,5.731127 c 3.74358,3.152119 8.55957,7.578823 10.70218,9.837122 l 3.89568,4.105994 -126.7717,126.741893 C 71.342058,348.51216 78.519352,342.00841 68.817273,338.08832 Z"
       id="path3734"
       inkscape:connector-curvature="0" />
  </g>
</svg>
